<svg width="48" height="120" viewBox="0 0 48 120" fill="none" xmlns="http://www.w3.org/2000/svg">
<circle cx="4" cy="4" r="4" fill="#AE33FF"/>
<circle cx="20" cy="4" r="4" fill="#AE33FF"/>
<circle cx="36" cy="4" r="4" fill="#AE33FF"/>
<circle cx="4" cy="20" r="4" fill="#AE33FF"/>
<circle cx="20" cy="20" r="4" fill="#AE33FF"/>
<circle cx="36" cy="20" r="4" fill="#AE33FF"/>
<circle cx="4" cy="36" r="4" fill="#AE33FF"/>
<circle cx="20" cy="36" r="4" fill="#AE33FF"/>
<circle cx="36" cy="36" r="4" fill="#AE33FF"/>
<circle cx="4" cy="52" r="4" fill="#AE33FF"/>
<circle cx="20" cy="52" r="4" fill="#AE33FF"/>
<circle cx="36" cy="52" r="4" fill="#AE33FF"/>
<circle cx="4" cy="68" r="4" fill="#AE33FF"/>
<circle cx="20" cy="68" r="4" fill="#AE33FF"/>
<circle cx="36" cy="68" r="3.5" stroke="#AE33FF"/>
<circle cx="4" cy="84" r="3.5" stroke="#AE33FF"/>
<circle cx="20" cy="84" r="4" fill="#AE33FF"/>
<circle cx="36" cy="84" r="4" fill="#AE33FF"/>
<circle cx="4" cy="100" r="3.5" stroke="#AE33FF"/>
<circle cx="20" cy="100" r="3.5" stroke="#AE33FF"/>
<circle cx="36" cy="100" r="4" fill="#AE33FF"/>
<circle cx="4" cy="116" r="4" fill="#AE33FF"/>
<circle cx="20" cy="116" r="3.5" stroke="#AE33FF"/>
<circle cx="36" cy="116" r="3.5" stroke="#AE33FF"/>
</svg>
