<svg width="36" height="40" viewBox="0 0 36 40" fill="none" xmlns="http://www.w3.org/2000/svg">
<path d="M31.7094 31.1901C31.7149 32.2567 31.2625 33.2745 30.4669 33.9849C29.6713 34.6953 28.6091 35.0301 27.5499 34.9043C25.6439 34.6223 24.2472 32.9637 24.2936 31.0375V8.8921C24.2476 6.96381 25.6477 5.30438 27.5563 5.02525C28.6144 4.90139 29.6749 5.2371 30.469 5.94731C31.2632 6.65753 31.7147 7.67409 31.7094 8.73946V31.1901Z" fill="#AE33FF"/>
<path d="M8.3746 27.5202C10.4224 27.5202 12.0825 29.1803 12.0825 31.2281C12.0825 33.2759 10.4224 34.9359 8.3746 34.9359C6.32681 34.9359 4.66675 33.2759 4.66675 31.2281C4.66675 29.1803 6.32681 27.5202 8.3746 27.5202ZM18.1308 16.2822C16.0733 16.395 14.4769 18.1208 14.5247 20.1808V30.1405C14.5247 32.8435 15.714 34.4844 17.4566 34.8342C18.5506 35.0559 19.6863 34.7738 20.5495 34.0661C21.4127 33.3583 21.9117 32.2998 21.9086 31.1836V20.0091C21.9104 19.0113 21.5113 18.0545 20.801 17.3537C20.0906 16.6529 19.1285 16.2668 18.1308 16.2822Z" fill="#AE33FF"/>
</svg>
