<svg width="32" height="25" viewBox="0 0 32 25" fill="none" xmlns="http://www.w3.org/2000/svg">
<path d="M30.6703 11.1149C31.4133 11.8889 31.4133 13.1111 30.6703 13.8851L25.4388 19.3346C24.9034 19.8923 24.0115 19.8922 23.4762 19.3346C22.9709 18.8082 22.9709 17.9769 23.4762 17.4505L26.8991 13.8851C27.6421 13.1111 27.6421 11.8888 26.8991 11.1149L23.4762 7.54946C22.9709 7.02309 22.9709 6.19179 23.4762 5.66542C24.0115 5.10777 24.9034 5.10777 25.4387 5.66541L30.6703 11.1149ZM5.10091 11.1149C4.35794 11.8889 4.35794 13.1111 5.10091 13.8851L8.52374 17.4505C9.02906 17.9768 9.02908 18.8082 8.52377 19.3346C7.98842 19.8922 7.0965 19.8923 6.56113 19.3346L1.32965 13.8851C0.586687 13.1111 0.58669 11.8889 1.32966 11.1149L6.56119 5.66542C7.09654 5.10777 7.9884 5.10777 8.52374 5.66542C9.02906 6.19179 9.02906 7.0231 8.52375 7.54947L5.10091 11.1149ZM13.3649 24.1023C13.1771 24.6399 12.6699 25 12.1004 25C11.178 25 10.5316 24.0895 10.8359 23.2187L18.6352 0.897627C18.823 0.360048 19.3302 0 19.8996 0C20.822 0 21.4684 0.910521 21.1641 1.78128L13.3649 24.1023Z" fill="#AE33FF"/>
</svg>
