<svg width="36" height="40" viewBox="0 0 36 40" fill="none" xmlns="http://www.w3.org/2000/svg">
<g clip-path="url(#clip0_10_1182)">
<path fill-rule="evenodd" clip-rule="evenodd" d="M6.75 0C3.024 0 0 2.98667 0 6.66667C0 10.3467 3.024 13.3333 6.75 13.3333C3.024 13.3333 0 16.32 0 20C0 23.68 3.024 26.6667 6.75 26.6667C3.024 26.6667 0 29.6533 0 33.3333C0 37.0133 3.024 40 6.75 40C10.476 40 13.5 37.0133 13.5 33.3333L13.5 20C13.5 23.68 16.524 26.6667 20.25 26.6667C23.976 26.6667 27 23.68 27 20C27 16.32 23.976 13.3333 20.25 13.3333C23.976 13.3333 27 10.3467 27 6.66667C27 2.98667 23.976 0 20.25 0H6.75ZM20.25 13.3333H13.5L13.5 20C13.5 16.32 16.524 13.3333 20.25 13.3333Z" fill="#AE33FF"/>
</g>
<defs>
<clipPath id="clip0_10_1182">
<rect width="36" height="40" fill="white"/>
</clipPath>
</defs>
</svg>
