<svg width="40" height="40" viewBox="0 0 40 40" fill="none" xmlns="http://www.w3.org/2000/svg">
<g clip-path="url(#clip0_4_60)">
<path fill-rule="evenodd" clip-rule="evenodd" d="M39.2456 18.2181L21.7809 0.75446C20.7759 -0.251487 19.1446 -0.251487 18.1382 0.75446L14.5117 4.38105L19.1121 8.98154C20.1812 8.62033 21.407 8.8626 22.2593 9.71494C23.1156 10.5725 23.3561 11.8089 22.9861 12.8816L27.4198 17.3153C28.4924 16.9457 29.7301 17.1849 30.5868 18.043C31.784 19.2398 31.784 21.1797 30.5868 22.3775C29.389 23.5752 27.4492 23.5752 26.251 22.3775C25.3504 21.476 25.1279 20.1532 25.5839 19.0436L21.4491 14.9088L21.4487 25.7899C21.7406 25.9347 22.0162 26.1274 22.2593 26.3697C23.4566 27.5665 23.4566 29.5065 22.2593 30.7051C21.0616 31.9024 19.1209 31.9024 17.9249 30.7051C16.7276 29.5065 16.7276 27.5665 17.9249 26.3697C18.2207 26.0743 18.563 25.8509 18.9282 25.7008V14.7183C18.563 14.5691 18.2211 14.347 17.9249 14.0495C17.0177 13.1436 16.7996 11.8124 17.2644 10.6985L12.7298 6.16296L0.754775 18.1373C-0.251592 19.1442 -0.251592 20.7755 0.754775 21.7815L18.2194 39.2455C19.2249 40.2515 20.8558 40.2515 21.8626 39.2455L39.2456 21.8627C40.2515 20.8563 40.2515 19.224 39.2456 18.2181" fill="#AE33FF"/>
</g>
<defs>
<clipPath id="clip0_4_60">
<rect width="40" height="40" fill="white"/>
</clipPath>
</defs>
</svg>
