<svg width="24" height="24" viewBox="0 0 24 24" fill="none" xmlns="http://www.w3.org/2000/svg">
<path fill-rule="evenodd" clip-rule="evenodd" d="M12.01 0C5.36874 0 0 5.5 0 12.3042C0 17.7432 3.43992 22.3471 8.21208 23.9767C8.80872 24.0991 9.02724 23.7119 9.02724 23.3861C9.02724 23.1009 9.00756 22.1231 9.00756 21.1044C5.6667 21.8379 4.971 19.6377 4.971 19.6377C4.43412 18.2117 3.63858 17.8452 3.63858 17.8452C2.54511 17.0914 3.7182 17.0914 3.7182 17.0914C4.93116 17.1729 5.56764 18.3544 5.56764 18.3544C6.64116 20.2284 8.37108 19.6989 9.06708 19.3729C9.16638 18.5784 9.48474 18.0284 9.82278 17.7229C7.15818 17.4377 4.35468 16.3785 4.35468 11.6522C4.35468 10.3077 4.83162 9.20769 5.58732 8.35218C5.46804 8.0467 5.05038 6.78344 5.70678 5.09274C5.70678 5.09274 6.72084 4.76671 9.00732 6.35575C9.98628 6.0864 10.9958 5.94935 12.01 5.94824C13.024 5.94824 14.0577 6.09095 15.0123 6.35575C17.299 4.76671 18.3131 5.09274 18.3131 5.09274C18.9695 6.78344 18.5515 8.0467 18.4323 8.35218C19.2079 9.20769 19.6652 10.3077 19.6652 11.6522C19.6652 16.3785 16.8617 17.4172 14.1772 17.7229C14.6148 18.1099 14.9924 18.8432 14.9924 20.0044C14.9924 21.6544 14.9727 22.9786 14.9727 23.3859C14.9727 23.7119 15.1915 24.0991 15.7879 23.9769C20.56 22.3469 23.9999 17.7432 23.9999 12.3042C24.0196 5.5 18.6312 0 12.01 0Z" fill="#151515"/>
</svg>
