<svg width="50" height="50" viewBox="0 0 50 50" fill="none" xmlns="http://www.w3.org/2000/svg">
<g clip-path="url(#clip0_275_95)">
<circle cx="25" cy="25" r="25" fill="white"/>
<path fill-rule="evenodd" clip-rule="evenodd" d="M25.0166 5C13.9479 5 5 13.9375 5 24.9943C5 33.8327 10.7332 41.3141 18.6868 43.9621C19.6812 44.1611 20.0454 43.5318 20.0454 43.0025C20.0454 42.539 20.0126 40.9501 20.0126 39.2947C14.4445 40.4866 13.285 36.9112 13.285 36.9112C12.3902 34.594 11.0643 33.9984 11.0643 33.9984C9.24185 32.7736 11.197 32.7736 11.197 32.7736C13.2186 32.906 14.2794 34.8259 14.2794 34.8259C16.0686 37.8712 18.9518 37.0107 20.1118 36.481C20.2773 35.1899 20.8079 34.2962 21.3713 33.7998C16.9303 33.3362 12.2578 31.615 12.2578 23.9348C12.2578 21.75 13.0527 19.9625 14.3122 18.5723C14.1134 18.0759 13.4173 16.0231 14.5113 13.2757C14.5113 13.2757 16.2014 12.7459 20.0122 15.3281C21.6438 14.8904 23.3263 14.6677 25.0166 14.6659C26.7067 14.6659 28.4295 14.8978 30.0205 15.3281C33.8317 12.7459 35.5218 13.2757 35.5218 13.2757C36.6158 16.0231 35.9192 18.0759 35.7205 18.5723C37.0132 19.9625 37.7753 21.75 37.7753 23.9348C37.7753 31.615 33.1028 33.3029 28.6287 33.7998C29.358 34.4286 29.9873 35.6202 29.9873 37.5072C29.9873 40.1884 29.9545 42.3403 29.9545 43.0021C29.9545 43.5318 30.3192 44.1611 31.3132 43.9625C39.2667 41.3137 44.9999 33.8327 44.9999 24.9943C45.0327 13.9375 36.052 5 25.0166 5Z" fill="#AE33FF"/>
</g>
<defs>
<clipPath id="clip0_275_95">
<rect width="50" height="50" fill="white"/>
</clipPath>
</defs>
</svg>
