<svg width="50" height="50" viewBox="0 0 50 50" fill="none" xmlns="http://www.w3.org/2000/svg">
<circle cx="25" cy="25" r="25" fill="white"/>
<circle cx="25" cy="25" r="20" fill="#AE33FF"/>
<path d="M25 21.4C23.0112 21.4 21.4 23.0117 21.4 25C21.4 26.9887 23.0118 28.6 25 28.6C26.9887 28.6 28.6 26.9883 28.6 25C28.6 23.0113 26.9883 21.4 25 21.4ZM25 19C28.3125 19 31 21.6845 31 25C31 28.3126 28.3155 31 25 31C21.6874 31 19 28.3155 19 25C19 21.6874 21.6845 19 25 19ZM32.8 18.699C32.8 19.5271 32.1271 20.199 31.3 20.199C30.4719 20.199 29.8 19.5261 29.8 18.699C29.8 17.8719 30.4729 17.2 31.3 17.2C32.1259 17.199 32.8 17.8719 32.8 18.699ZM25 15.4C22.0306 15.4 21.5467 15.4079 20.1655 15.4693C19.2246 15.5136 18.5939 15.6401 18.0078 15.8676C17.487 16.0696 17.1113 16.3108 16.7111 16.7111C16.3093 17.1129 16.0685 17.4876 15.8673 18.0086C15.6392 18.5959 15.5127 19.2258 15.4693 20.1654C15.4073 21.4903 15.4 21.9533 15.4 25C15.4 27.9694 15.4079 28.4533 15.4693 29.8343C15.5136 30.7749 15.6403 31.4065 15.8672 31.9912C16.0698 32.5127 16.3114 32.8893 16.7098 33.2877C17.1132 33.6905 17.4889 33.9321 18.005 34.1313C18.5983 34.3606 19.2286 34.4873 20.1654 34.5307C21.4903 34.5927 21.9533 34.6 25 34.6C27.9694 34.6 28.4533 34.5921 29.8343 34.5307C30.7729 34.4866 31.405 34.3595 31.9912 34.1327C32.5113 33.9307 32.8891 33.6883 33.2877 33.2902C33.6911 32.8861 33.9322 32.5113 34.1317 31.9939C34.3603 31.4029 34.4873 30.7717 34.5307 29.8347C34.5927 28.5097 34.6 28.0467 34.6 25C34.6 22.0306 34.5921 21.5467 34.5307 20.1656C34.4865 19.2269 34.3594 18.5938 34.1323 18.0079C33.9309 17.4884 33.6889 17.1116 33.2889 16.7111C32.8864 16.3086 32.5127 16.0683 31.9913 15.8673C31.4044 15.6395 30.7737 15.5127 29.8345 15.4693C28.5097 15.4073 28.0467 15.4 25 15.4ZM25 13C28.26 13 28.6669 13.012 29.947 13.072C31.2239 13.131 32.095 13.333 32.86 13.63C33.6509 13.935 34.3189 14.347 34.9859 15.014C35.6519 15.681 36.064 16.351 36.37 17.14C36.6659 17.904 36.868 18.776 36.928 20.053C36.985 21.333 37 21.74 37 25C37 28.2601 36.988 28.6669 36.928 29.947C36.8689 31.2241 36.6659 32.095 36.37 32.86C36.0649 33.6511 35.6519 34.3189 34.9859 34.9861C34.3189 35.6521 33.6479 36.064 32.86 36.37C32.095 36.6661 31.2239 36.868 29.947 36.928C28.6669 36.985 28.26 37 25 37C21.74 37 21.333 36.988 20.053 36.928C18.776 36.8689 17.906 36.6661 17.14 36.37C16.35 36.0649 15.681 35.6521 15.014 34.9861C14.347 34.3189 13.936 33.6481 13.63 32.86C13.333 32.095 13.132 31.2241 13.072 29.947C13.015 28.6669 13 28.2601 13 25C13 21.74 13.012 21.333 13.072 20.053C13.131 18.775 13.333 17.905 13.63 17.14C13.935 16.35 14.347 15.681 15.014 15.014C15.681 14.347 16.351 13.936 17.14 13.63C17.905 13.333 18.775 13.132 20.053 13.072C21.333 13.015 21.74 13 25 13Z" fill="white"/>
</svg>
