<svg width="24" height="24" viewBox="0 0 24 24" fill="none" xmlns="http://www.w3.org/2000/svg">
<circle cx="12" cy="12" r="12" fill="white"/>
<path d="M12 9.9C10.8398 9.9 9.9 10.8401 9.9 12C9.9 13.1601 10.8402 14.1 12 14.1C13.1601 14.1 14.1 13.1599 14.1 12C14.1 10.8399 13.1599 9.9 12 9.9ZM12 8.5C13.9323 8.5 15.5 10.066 15.5 12C15.5 13.9324 13.934 15.5 12 15.5C10.0676 15.5 8.5 13.934 8.5 12C8.5 10.0676 10.066 8.5 12 8.5ZM16.55 8.3244C16.55 8.8075 16.1574 9.1994 15.675 9.1994C15.1919 9.1994 14.8 8.8069 14.8 8.3244C14.8 7.84195 15.1925 7.45 15.675 7.45C16.1568 7.4494 16.55 7.84195 16.55 8.3244ZM12 6.4C10.2679 6.4 9.98555 6.4046 9.1799 6.44045C8.631 6.46625 8.2631 6.54005 7.9212 6.67275C7.6174 6.7906 7.39825 6.9313 7.1648 7.1648C6.9304 7.3992 6.78995 7.61775 6.6726 7.9217C6.53955 8.2643 6.46575 8.6317 6.44045 9.1798C6.40425 9.95265 6.4 10.2227 6.4 12C6.4 13.7321 6.4046 14.0144 6.44045 14.82C6.46625 15.3687 6.54015 15.7371 6.67255 16.0782C6.7907 16.3824 6.93165 16.6021 7.16405 16.8345C7.39935 17.0694 7.61855 17.2104 7.9196 17.3266C8.26565 17.4603 8.63335 17.5342 9.1798 17.5595C9.95265 17.5957 10.2227 17.6 12 17.6C13.7321 17.6 14.0144 17.5954 14.82 17.5595C15.3675 17.5338 15.7362 17.4597 16.0782 17.3274C16.3816 17.2096 16.6019 17.0682 16.8345 16.836C17.0698 16.6003 17.2104 16.3816 17.3268 16.0798C17.4602 15.735 17.5342 15.3668 17.5595 14.8202C17.5957 14.0473 17.6 13.7773 17.6 12C17.6 10.2679 17.5954 9.98555 17.5595 9.17995C17.5338 8.63235 17.4596 8.26305 17.3272 7.92125C17.2097 7.61825 17.0685 7.39845 16.8352 7.1648C16.6004 6.93 16.3824 6.78985 16.0783 6.6726C15.7359 6.5397 15.368 6.46575 14.8202 6.44045C14.0474 6.40425 13.7773 6.4 12 6.4ZM12 5C13.9016 5 14.139 5.007 14.8857 5.042C15.6306 5.0764 16.1387 5.19425 16.585 5.3675C17.0463 5.5454 17.436 5.78575 17.8251 6.17485C18.2136 6.5639 18.454 6.95475 18.6325 7.415C18.8051 7.86065 18.923 8.36935 18.958 9.11425C18.9913 9.8609 19 10.0984 19 12C19 13.9017 18.993 14.139 18.958 14.8857C18.9236 15.6307 18.8051 16.1387 18.6325 16.585C18.4545 17.0464 18.2136 17.436 17.8251 17.8252C17.436 18.2137 17.0446 18.454 16.585 18.6325C16.1387 18.8052 15.6306 18.923 14.8857 18.958C14.139 18.9913 13.9016 19 12 19C10.0984 19 9.8609 18.993 9.11425 18.958C8.36935 18.9236 7.86185 18.8052 7.415 18.6325C6.95415 18.4545 6.5639 18.2137 6.17485 17.8252C5.78575 17.436 5.546 17.0447 5.3675 16.585C5.19425 16.1387 5.077 15.6307 5.042 14.8857C5.00875 14.139 5 13.9017 5 12C5 10.0984 5.007 9.8609 5.042 9.11425C5.0764 8.36875 5.19425 7.86125 5.3675 7.415C5.5454 6.95415 5.78575 6.5639 6.17485 6.17485C6.5639 5.78575 6.95475 5.546 7.415 5.3675C7.86125 5.19425 8.36875 5.077 9.11425 5.042C9.8609 5.00875 10.0984 5 12 5Z" fill="#151515"/>
</svg>
