<svg width="40" height="40" viewBox="0 0 40 40" fill="none" xmlns="http://www.w3.org/2000/svg">
<g clip-path="url(#clip0_7_339)">
<path fill-rule="evenodd" clip-rule="evenodd" d="M0 0H40V40H0V0ZM10.5175 33.4269C11.4035 35.3062 13.1491 36.8634 16.156 36.8634C19.4856 36.8634 21.7677 35.0913 21.7677 31.198V18.3639H18.0088V31.1448C18.0088 33.0242 17.23 33.5074 15.9949 33.5074C14.7063 33.5074 14.1691 32.6215 13.5785 31.5744L10.5175 33.4269ZM26.8702 31.252L23.8096 33.0241C24.9103 35.1991 27.1658 36.8637 30.6563 36.8637C34.2274 36.8637 36.8855 35.0112 36.8855 31.6279C36.8855 28.4865 35.0865 27.0904 31.8912 25.721L30.9516 25.3182C29.3407 24.6201 28.6425 24.1635 28.6425 23.0357C28.6425 22.123 29.3407 21.4249 30.4416 21.4249C31.5156 21.4249 32.2135 21.8813 32.8579 23.0357L35.7846 21.1563C34.5496 18.9814 32.8312 18.149 30.4415 18.149C27.0851 18.149 24.9371 20.2971 24.9371 23.1164C24.9371 26.1774 26.7361 27.6273 29.4482 28.7817L30.3877 29.1847C32.1062 29.9363 33.1264 30.3928 33.1264 31.6816C33.1264 32.7556 32.1332 33.5344 30.5757 33.5344C28.7231 33.5344 27.6759 32.5678 26.8702 31.252Z" fill="#AE33FF"/>
</g>
<defs>
<clipPath id="clip0_7_339">
<rect width="40" height="40" fill="white"/>
</clipPath>
</defs>
</svg>
