<svg width="50" height="50" viewBox="0 0 50 50" fill="none" xmlns="http://www.w3.org/2000/svg">
<circle cx="25" cy="25" r="25" fill="white"/>
<path d="M25 5C13.9541 5 5 13.9541 5 25C5 36.0459 13.9541 45 25 45C36.0459 45 45 36.0459 45 25C45 13.9541 36.0459 5 25 5ZM20.1041 33.2896H16.0541V20.2562H20.1041V33.2896ZM18.0541 18.6562C16.775 18.6562 15.9479 17.75 15.9479 16.6291C15.9479 15.4854 16.8 14.6062 18.1062 14.6062C19.4125 14.6062 20.2125 15.4854 20.2375 16.6291C20.2375 17.75 19.4125 18.6562 18.0541 18.6562ZM34.8959 33.2896H30.8459V26.0666C30.8459 24.3854 30.2584 23.2437 28.7937 23.2437C27.675 23.2437 27.0104 24.0166 26.7166 24.7604C26.6084 25.025 26.5812 25.4 26.5812 25.7729V33.2875H22.5291V24.4125C22.5291 22.7854 22.4771 21.425 22.4229 20.2541H25.9416L26.1271 22.0646H26.2084C26.7416 21.2146 28.0479 19.9604 30.2334 19.9604C32.8979 19.9604 34.8959 21.7459 34.8959 25.5834V33.2896Z" fill="#AE33FF"/>
</svg>
