<svg width="24" height="24" viewBox="0 0 24 24" fill="none" xmlns="http://www.w3.org/2000/svg">
<path d="M12 0C5.37249 0 0 5.37249 0 12C0 18.6275 5.37249 24 12 24C18.6275 24 24 18.6275 24 12C24 5.37249 18.6275 0 12 0ZM9.06249 16.9737H6.63249V9.15373H9.06249V16.9737ZM7.83249 8.19373C7.065 8.19373 6.56876 7.65 6.56876 6.97749C6.56876 6.29126 7.08 5.76373 7.86373 5.76373C8.6475 5.76373 9.1275 6.29126 9.1425 6.97749C9.1425 7.65 8.6475 8.19373 7.83249 8.19373ZM17.9375 16.9737H15.5075V12.64C15.5075 11.6313 15.155 10.9462 14.2762 10.9462C13.605 10.9462 13.2063 11.41 13.03 11.8563C12.965 12.015 12.9487 12.24 12.9487 12.4638V16.9725H10.5175V11.6475C10.5175 10.6713 10.4862 9.855 10.4538 9.15249H12.565L12.6762 10.2387H12.725C13.045 9.72874 13.8288 8.97626 15.14 8.97626C16.7388 8.97626 17.9375 10.0475 17.9375 12.35V16.9737Z" fill="#151515"/>
</svg>
