<svg width="30" height="23" viewBox="0 0 30 23" fill="none" xmlns="http://www.w3.org/2000/svg">
<path d="M28.6318 10.1014C29.3923 10.8788 29.3923 12.1213 28.6318 12.8986L23.8322 17.8048C23.3366 18.3115 22.5212 18.3115 22.0256 17.8048V17.8048C21.5451 17.3136 21.5451 16.5286 22.0256 16.0374L25.0963 12.8986C25.8567 12.1213 25.8567 10.8787 25.0963 10.1014L22.0256 6.96251C21.5451 6.47137 21.5451 5.68633 22.0256 5.19518V5.19518C22.5212 4.68853 23.3365 4.68852 23.8322 5.19517L28.6318 10.1014ZM4.90373 10.1014C4.14328 10.8787 4.14329 12.1212 4.90373 12.8986L7.97437 16.0374C8.45485 16.5286 8.45486 17.3136 7.9744 17.8048V17.8048C7.47875 18.3115 6.66337 18.3115 6.1677 17.8048L1.36817 12.8986C0.607735 12.1212 0.607738 10.8788 1.36818 10.1014L6.16776 5.19518C6.6634 4.68853 7.47873 4.68853 7.97437 5.19518V5.19518C8.45484 5.68633 8.45485 6.47137 7.97437 6.96252L4.90373 10.1014ZM12.5321 22.1672C12.3543 22.6665 11.8816 23 11.3515 23V23C10.4854 23 9.88047 22.1424 10.171 21.3265L17.468 0.832785C17.6458 0.333464 18.1185 0 18.6485 0V0C19.5146 0 20.1195 0.857569 19.829 1.67346L12.5321 22.1672Z" fill="#AE33FF"/>
</svg>
