<svg width="40" height="42" viewBox="0 0 40 42" fill="none" xmlns="http://www.w3.org/2000/svg">
<path fill-rule="evenodd" clip-rule="evenodd" d="M12.2922 25.7004C11.5656 26.1179 10.4709 26.7942 9.62406 27.5297C8.23375 28.736 7.94281 30.4093 8.67625 30.8002C9.35469 31.1615 10.9386 30.7316 12.0722 29.5956C13.2619 28.403 13.7525 26.8911 13.2458 25.1747C13.1862 25.2073 13.1278 25.24 13.0705 25.2705L13.0717 25.2728L12.9948 25.3128C12.6991 25.475 12.4573 25.6088 12.2922 25.7004ZM32.7095 25.1589C32.298 25.9806 32.2773 26.2451 32.4023 26.3273C32.9995 26.1302 33.9875 25.6552 33.9953 24.3823C33.9966 24.1917 33.9508 23.9871 33.8773 23.7733C33.2389 24.2927 32.8709 24.8365 32.7095 25.1589ZM39.1173 22.6744C37.522 22.5036 36.2772 22.7092 35.3111 23.079C35.49 23.5068 35.6275 23.9523 35.6469 24.4012C35.6917 25.3865 34.9536 26.1156 34.1844 26.6361C33.7352 26.9396 33.2572 27.1419 32.8559 27.264C32.5352 27.3883 32.1087 27.5168 31.8061 27.4601C31.1389 27.3355 30.7837 26.791 31.2377 25.5899C31.4828 24.9399 32.19 23.9503 33.3316 23.0981C33.0714 22.6059 32.7814 22.1045 32.6336 21.6438C32.3423 20.7357 32.2544 20.1868 32.2544 20.1868C32.2544 20.1868 31.3134 21.979 30.0995 23.609C30.0295 23.7037 29.9597 23.7966 29.8897 23.8892C30.1281 24.3982 30.3159 24.9366 30.3414 25.4793C30.3861 26.4644 29.9219 27.2093 29.1516 27.7287C28.7345 28.0112 28.2897 28.2063 27.908 28.3305C27.6639 28.4284 27.1675 28.5895 26.4616 28.6328C26.0755 28.6571 25.7041 28.6351 25.4967 28.4907C25.2113 28.2926 25.1769 28.0481 25.3247 27.7141C25.4497 27.4305 26.3848 26.4498 27.1689 25.591C27.3855 25.3539 27.5917 25.1116 27.7762 24.8872L27.7717 24.8776C27.7717 24.8776 27.9137 24.7092 28.1442 24.4152C27.8577 23.8483 27.4944 23.2581 27.3236 22.7229C27.0323 21.8148 26.9442 21.2657 26.9442 21.2657C26.9442 21.2657 25.9905 23.5122 24.9969 25.3055C24.228 26.6944 23.7144 27.5361 23.483 27.9048L23.4806 27.9196C23.4806 27.9196 23.4461 27.9735 23.3866 28.0577L23.342 28.1261L23.3408 28.1197C23.0828 28.4697 22.5041 29.1555 21.9287 29.1555C20.3494 29.1555 20.9292 26.2085 20.9292 26.2085C20.9292 26.2085 20.4675 27.3 19.947 28.2367C19.5231 29.0006 19.1369 29.6477 18.2922 29.6477C18.0492 29.6477 17.6641 29.6413 17.3442 29.3619C16.6187 28.7287 16.0641 27.1207 16.1728 25.8754C16.2656 24.8165 16.4433 24.0831 16.6862 23.4712C16.253 23.6881 15.7522 23.9453 15.2422 24.2204L14.4581 24.6449L14.4834 24.6871C15.132 25.8398 15.3052 28.3654 13.8908 30.3041C12.4766 32.2438 9.84391 33.424 7.27891 32.7686C6.45125 32.5567 5.20094 30.9837 6.27938 28.791C7.23062 26.8575 11.0323 25.0294 12.0342 24.5732L12.3092 24.4341C10.3117 22.8283 5.32359 20.6621 4.62453 17.3346C4.42734 16.3979 4.90531 14.1579 7.89891 11.5828C10.4169 9.41756 13.9195 7.75907 17.1552 6.70222C22.5911 4.92688 28.3345 5.97411 29.2181 9.1583C30.0869 12.2898 27.13 16.0356 23.3431 17.3821C19.962 18.5843 17.1666 18.3936 16.0181 18.0471C14.7127 17.653 13.947 16.8616 13.7603 16.4149C13.6869 16.24 13.5606 15.9461 13.7603 15.8449C13.8828 15.7828 13.932 15.7976 14.2598 16.1305C14.5717 16.4466 15.8255 17.2948 18.2072 17.0492C24.4572 16.4055 28.222 11.9411 27.0323 9.53872C26.1992 7.85712 21.382 7.09843 15.3636 9.85583C8.01688 13.2212 7.61812 15.9955 7.55516 17.0492C7.38312 19.9477 11.4461 21.4724 13.6445 23.6281L13.7292 23.7135C14.1406 23.5049 14.5752 23.2847 15.0014 23.0698C16.1098 22.5102 17.1552 21.9854 17.6422 21.7409C18.4159 20.7076 19.9859 19.5673 21.1195 19.5673C22.9316 19.5673 22.3092 21.9602 22.3092 21.9602C22.3092 21.9602 22.3459 21.8507 22.3952 21.8497C22.4467 21.8484 22.6462 21.5345 23.2056 21.7219C23.7809 21.9159 23.6502 22.2868 23.6537 22.3247C23.6606 22.3984 22.9741 24.5257 22.6887 25.8902C22.5522 26.5414 22.6312 27.0157 22.6716 27.0157C22.7277 27.0157 22.8423 26.8501 22.9489 26.6721L22.9466 26.6668C22.9466 26.6668 23.0267 26.532 23.1609 26.2897L23.1873 26.239L23.1884 26.2413C23.3467 25.9568 23.5689 25.5385 23.8256 25.0201C24.3287 24.0013 26.2484 20.0679 26.4112 19.6328C26.5739 19.1977 26.6587 18.7478 26.7391 18.5548C26.8181 18.362 27.4967 18.2166 28.2897 18.2219C29.0828 18.2272 29.1633 18.538 29.1687 18.6023C29.1745 18.6665 28.7917 19.5296 28.7034 20.1395C28.6164 20.7496 28.7002 21.054 28.7723 21.5662C28.8194 21.9011 29.0473 22.3259 29.3169 22.8074C30.1375 21.5745 31.5814 19.2165 31.7202 18.5558C31.8152 18.1039 31.9677 17.6708 32.048 17.4779C32.1281 17.2851 32.8056 17.1398 33.5986 17.145C34.3917 17.1503 34.4719 17.4611 34.4777 17.5254C34.4834 17.5897 34.0994 18.4526 34.0123 19.0627C33.9252 19.6717 34.0091 19.9773 34.0811 20.4894C34.1431 20.9276 34.512 21.5167 34.8778 22.1866C35.8759 21.7346 37.0508 21.4312 38.4262 21.4249C38.9958 21.4219 39.6572 21.4744 39.9987 21.5724V11.4921C39.9987 10.7809 39.602 10.1256 38.9317 9.77056L21.0337 0.266366C20.3645 -0.0887887 19.545 -0.0887887 18.8756 0.266366L1.02703 9.76597C0.357656 10.1211 0 10.7776 0 11.4876V30.5042C0 31.2142 0.359844 31.8707 1.02812 32.2257L18.9055 41.7328C19.5747 42.0891 20.3862 42.0891 21.0555 41.7328L38.9409 32.2257C39.6102 31.8695 40 31.2141 40 30.5042V22.8188C39.773 22.7574 39.4406 22.709 39.1173 22.6744ZM19.8623 21.6786C19.4784 22.0736 18.8241 23.0925 18.518 23.9452C17.9094 25.6383 18.173 27.3589 18.6039 27.4623C19.107 27.5833 19.9323 25.3201 20.3275 24.435C20.5752 23.8807 21.538 21.4206 21.327 21.0919C21.1623 20.8348 20.4802 21.0423 19.8623 21.6786ZM26.8253 27.3852C26.8253 27.3852 26.7039 27.4907 26.7564 27.5201C26.8275 27.5592 26.9811 27.5085 27.1484 27.4284C27.6219 27.1546 28.6842 26.4717 28.6866 25.4613C28.6866 25.4318 28.6853 25.4034 28.6831 25.3728C28.4367 25.67 28.2097 25.9344 28.0137 26.1588C27.6791 26.5412 26.8253 27.3852 26.8253 27.3852Z" fill="#AE33FF"/>
</svg>
