<svg width="50" height="50" viewBox="0 0 50 50" fill="none" xmlns="http://www.w3.org/2000/svg">
<circle cx="25" cy="25" r="25" fill="white"/>
<path d="M25 5C36.0457 5 45 13.9543 45 25C45 36.0457 36.0457 45 25 45C13.9543 45 5 36.0457 5 25C5 13.9543 13.9543 5 25 5ZM33.5034 15.8757C32.9619 15.8852 32.3522 16.0375 31.224 16.4469C30.0812 16.8617 28.3162 17.5757 25.4264 18.7777C23.3925 19.6237 19.3362 21.3707 13.2642 24.0161C12.7519 24.2212 12.3089 24.4435 11.9727 24.6932C11.6728 24.9159 11.3322 25.2537 11.2362 25.73L11.2207 25.8277C11.1761 26.1841 11.2575 26.5226 11.4534 26.8107C11.6332 27.0749 11.8791 27.2526 12.098 27.3771C12.517 27.6155 13.0867 27.7908 13.5929 27.95C13.7404 27.9964 13.8888 28.0432 14.0405 28.0924C14.5838 28.2691 15.2271 28.4625 15.835 28.6149C16.4234 28.7625 17.0457 28.8887 17.5187 28.8989C18.4332 28.9187 19.3558 28.5427 20.2621 27.9216L20.2628 27.9223C22.2125 26.6063 23.8379 25.516 25.1375 24.6484C24.6255 25.1284 24.1363 25.5842 23.737 25.9554C23.2515 26.4067 22.8651 26.7642 22.771 26.862C22.6202 27.0187 22.4654 27.1693 22.3038 27.325C22.0663 27.5541 21.7967 27.8122 21.5796 28.0753C21.3647 28.3359 21.1337 28.6788 21.0506 29.0999C20.8553 30.0898 21.5397 30.845 22.4642 31.4542C23.3091 32.011 23.9856 32.4712 24.6647 32.9337C25.4065 33.4389 26.1513 33.9467 27.1151 34.5784C27.3431 34.7279 27.5634 34.8842 27.7922 35.0472C28.5929 35.6181 29.6279 36.4001 30.9489 36.2785C32.1028 36.1722 32.8083 35.1066 33.1152 33.466C33.8049 29.7792 35.1682 21.7505 35.4858 18.4139C35.5223 18.0308 35.4794 17.5845 35.4435 17.3747C35.4069 17.1606 35.3043 16.6722 34.8503 16.3037C34.5931 16.095 34.3023 15.9932 34.0861 15.9416C33.8648 15.8887 33.6552 15.873 33.5034 15.8757Z" fill="#AE33FF"/>
</svg>
