<svg width="16" height="12" viewBox="0 0 16 12" fill="none" xmlns="http://www.w3.org/2000/svg">
<path d="M14.5858 4.58579C15.3668 5.36683 15.3668 6.63317 14.5858 7.41422L12.7002 9.29984C12.4398 9.5602 12.0177 9.56019 11.7573 9.29982C11.497 9.03946 11.497 8.61735 11.7573 8.357L12.7001 7.41422C13.4812 6.63317 13.4812 5.36683 12.7002 4.58577L11.7573 3.64297C11.497 3.38263 11.497 2.96052 11.7573 2.70017C12.0177 2.43982 12.4398 2.43982 12.7001 2.70016L14.5858 4.58579ZM3.29983 4.58579C2.51879 5.36683 2.51879 6.63316 3.29984 7.41421L4.24264 8.35699C4.50299 8.61735 4.503 9.03946 4.24265 9.29982C3.9823 9.56019 3.56016 9.5602 3.2998 9.29983L1.4142 7.41421C0.633158 6.63316 0.633161 5.36684 1.41421 4.58579L3.29983 2.70017C3.56018 2.43982 3.98229 2.43982 4.24264 2.70017C4.50299 2.96052 4.50299 3.38263 4.24264 3.64298L3.29983 4.58579ZM6.68529 11.5613C6.58943 11.8247 6.33909 12 6.05883 12C5.5961 12 5.2741 11.5401 5.43237 11.1053L9.31475 0.438641C9.4106 0.175285 9.66093 0 9.94119 0C10.4039 0 10.7259 0.459847 10.5676 0.894657L6.68529 11.5613Z" fill="#AE33FF"/>
</svg>
