<svg width="24" height="24" viewBox="0 0 24 24" fill="none" xmlns="http://www.w3.org/2000/svg">
<g clip-path="url(#clip0_153_269)">
<rect width="24" height="24" rx="12" fill="#FAFAFA"/>
<mask id="path-2-inside-1_153_269" fill="white">
<path d="M12 8.4C10.0111 8.4 8.39999 10.0117 8.39999 12C8.39999 13.9888 10.0117 15.6 12 15.6C13.9888 15.6 15.6 13.9883 15.6 12C15.6 10.0112 13.9883 8.4 12 8.4ZM12 6C15.3125 6 18 8.68452 18 12C18 15.3126 15.3155 18 12 18C8.68743 18 5.99999 15.3155 5.99999 12C5.99999 8.68744 8.68451 6 12 6ZM19.8 5.69898C19.8 6.52711 19.127 7.199 18.3 7.199C17.4719 7.199 16.8 6.52608 16.8 5.69898C16.8 4.87188 17.4728 4.2 18.3 4.2C19.126 4.19896 19.8 4.87188 19.8 5.69898ZM12 2.4C9.03062 2.4 8.54663 2.40786 7.16554 2.46936C6.2246 2.51353 5.59385 2.64008 5.00781 2.8676C4.48701 3.06959 4.11133 3.31078 3.71105 3.71106C3.30923 4.11288 3.06847 4.48756 2.8673 5.0086C2.63925 5.59598 2.51274 6.22573 2.46936 7.16538C2.40726 8.49024 2.4 8.95326 2.4 12C2.4 14.9694 2.40786 15.4534 2.46935 16.8343C2.51354 17.7749 2.64026 18.4066 2.86723 18.9912C3.06974 19.5127 3.31142 19.8893 3.70977 20.2877C4.11318 20.6905 4.48897 20.9321 5.00506 21.1313C5.59825 21.3606 6.22859 21.4873 7.16536 21.5306C8.49023 21.5927 8.95325 21.6 12 21.6C14.9694 21.6 15.4534 21.5921 16.8343 21.5306C17.7728 21.4866 18.405 21.3595 18.9912 21.1327C19.5113 20.9308 19.889 20.6882 20.2877 20.2902C20.6911 19.8862 20.9322 19.5113 21.1316 18.994C21.3604 18.403 21.4873 17.7718 21.5306 16.8347C21.5927 15.5098 21.6 15.0467 21.6 12C21.6 9.03062 21.5921 8.54665 21.5306 7.16564C21.4865 6.22687 21.3594 5.59379 21.1324 5.00782C20.9309 4.48846 20.6888 4.11162 20.2889 3.71106C19.8864 3.30858 19.5127 3.06832 18.9913 2.8673C18.4044 2.63945 17.7737 2.51275 16.8346 2.46937C15.5098 2.40726 15.0467 2.4 12 2.4ZM12 0C15.2599 0 15.667 0.0119999 16.947 0.0719999C18.2239 0.131004 19.095 0.333 19.86 0.63C20.6509 0.935004 21.319 1.347 21.9859 2.014C22.6519 2.681 23.064 3.351 23.37 4.14C23.6659 4.904 23.868 5.776 23.928 7.053C23.985 8.333 24 8.74 24 12C24 15.26 23.988 15.667 23.928 16.947C23.869 18.224 23.6659 19.095 23.37 19.86C23.065 20.651 22.6519 21.319 21.9859 21.986C21.319 22.652 20.6479 23.064 19.86 23.37C19.095 23.666 18.2239 23.868 16.947 23.928C15.667 23.985 15.2599 24 12 24C8.73999 24 8.33298 23.988 7.05299 23.928C5.77599 23.869 4.90599 23.666 4.14 23.37C3.34999 23.065 2.68099 22.652 2.01399 21.986C1.347 21.319 0.935999 20.648 0.63 19.86C0.333 19.095 0.132 18.224 0.0720001 16.947C0.0150002 15.667 0 15.26 0 12C0 8.74 0.0120002 8.333 0.0720001 7.053C0.130992 5.775 0.333 4.905 0.63 4.14C0.934991 3.35 1.347 2.681 2.01399 2.014C2.68099 1.347 3.351 0.936 4.14 0.63C4.905 0.333 5.77499 0.132 7.05299 0.0719999C8.33298 0.0149999 8.73999 0 12 0Z"/>
</mask>
<path d="M12 8.4C10.0111 8.4 8.39999 10.0117 8.39999 12C8.39999 13.9888 10.0117 15.6 12 15.6C13.9888 15.6 15.6 13.9883 15.6 12C15.6 10.0112 13.9883 8.4 12 8.4ZM12 6C15.3125 6 18 8.68452 18 12C18 15.3126 15.3155 18 12 18C8.68743 18 5.99999 15.3155 5.99999 12C5.99999 8.68744 8.68451 6 12 6ZM19.8 5.69898C19.8 6.52711 19.127 7.199 18.3 7.199C17.4719 7.199 16.8 6.52608 16.8 5.69898C16.8 4.87188 17.4728 4.2 18.3 4.2C19.126 4.19896 19.8 4.87188 19.8 5.69898ZM12 2.4C9.03062 2.4 8.54663 2.40786 7.16554 2.46936C6.2246 2.51353 5.59385 2.64008 5.00781 2.8676C4.48701 3.06959 4.11133 3.31078 3.71105 3.71106C3.30923 4.11288 3.06847 4.48756 2.8673 5.0086C2.63925 5.59598 2.51274 6.22573 2.46936 7.16538C2.40726 8.49024 2.4 8.95326 2.4 12C2.4 14.9694 2.40786 15.4534 2.46935 16.8343C2.51354 17.7749 2.64026 18.4066 2.86723 18.9912C3.06974 19.5127 3.31142 19.8893 3.70977 20.2877C4.11318 20.6905 4.48897 20.9321 5.00506 21.1313C5.59825 21.3606 6.22859 21.4873 7.16536 21.5306C8.49023 21.5927 8.95325 21.6 12 21.6C14.9694 21.6 15.4534 21.5921 16.8343 21.5306C17.7728 21.4866 18.405 21.3595 18.9912 21.1327C19.5113 20.9308 19.889 20.6882 20.2877 20.2902C20.6911 19.8862 20.9322 19.5113 21.1316 18.994C21.3604 18.403 21.4873 17.7718 21.5306 16.8347C21.5927 15.5098 21.6 15.0467 21.6 12C21.6 9.03062 21.5921 8.54665 21.5306 7.16564C21.4865 6.22687 21.3594 5.59379 21.1324 5.00782C20.9309 4.48846 20.6888 4.11162 20.2889 3.71106C19.8864 3.30858 19.5127 3.06832 18.9913 2.8673C18.4044 2.63945 17.7737 2.51275 16.8346 2.46937C15.5098 2.40726 15.0467 2.4 12 2.4ZM12 0C15.2599 0 15.667 0.0119999 16.947 0.0719999C18.2239 0.131004 19.095 0.333 19.86 0.63C20.6509 0.935004 21.319 1.347 21.9859 2.014C22.6519 2.681 23.064 3.351 23.37 4.14C23.6659 4.904 23.868 5.776 23.928 7.053C23.985 8.333 24 8.74 24 12C24 15.26 23.988 15.667 23.928 16.947C23.869 18.224 23.6659 19.095 23.37 19.86C23.065 20.651 22.6519 21.319 21.9859 21.986C21.319 22.652 20.6479 23.064 19.86 23.37C19.095 23.666 18.2239 23.868 16.947 23.928C15.667 23.985 15.2599 24 12 24C8.73999 24 8.33298 23.988 7.05299 23.928C5.77599 23.869 4.90599 23.666 4.14 23.37C3.34999 23.065 2.68099 22.652 2.01399 21.986C1.347 21.319 0.935999 20.648 0.63 19.86C0.333 19.095 0.132 18.224 0.0720001 16.947C0.0150002 15.667 0 15.26 0 12C0 8.74 0.0120002 8.333 0.0720001 7.053C0.130992 5.775 0.333 4.905 0.63 4.14C0.934991 3.35 1.347 2.681 2.01399 2.014C2.68099 1.347 3.351 0.936 4.14 0.63C4.905 0.333 5.77499 0.132 7.05299 0.0719999C8.33298 0.0149999 8.73999 0 12 0Z" fill="#1A1A1A"/>
<path d="M18.3 4.2V7.2L18.3038 7.2L18.3 4.2ZM7.16554 2.46936L7.03208 -0.527679L7.02486 -0.52734L7.16554 2.46936ZM5.00781 2.8676L6.09259 5.66461L6.09355 5.66424L5.00781 2.8676ZM3.71105 3.71106L1.58972 1.58974L1.58972 1.58974L3.71105 3.71106ZM2.8673 5.0086L5.66393 6.09436L5.66595 6.08913L2.8673 5.0086ZM2.46936 7.16538L5.46607 7.30584L5.46617 7.30373L2.46936 7.16538ZM2.46935 16.8343L-0.527694 16.9678L-0.527348 16.9751L2.46935 16.8343ZM2.86723 18.9912L0.070582 20.0769L0.0706695 20.0771L2.86723 18.9912ZM3.70977 20.2877L1.58832 22.4089L1.58994 22.4105L3.70977 20.2877ZM5.00506 21.1313L6.08682 18.3331L6.08532 18.3325L5.00506 21.1313ZM7.16536 21.5306L7.30569 18.5339L7.30395 18.5338L7.16536 21.5306ZM16.8343 21.5306L16.9677 24.5277L16.9749 24.5273L16.8343 21.5306ZM18.9912 21.1327L20.0737 23.9306L20.0772 23.9293L18.9912 21.1327ZM20.2877 20.2902L22.4074 22.4131L22.4106 22.4099L20.2877 20.2902ZM21.1316 18.994L18.3339 17.9112L18.3325 17.9148L21.1316 18.994ZM21.5306 16.8347L18.5339 16.6944L18.5338 16.6961L21.5306 16.8347ZM21.5306 7.16564L24.5277 7.03231L24.5273 7.02468L21.5306 7.16564ZM21.1324 5.00782L23.9297 3.92395L23.9293 3.92279L21.1324 5.00782ZM20.2889 3.71106L22.4118 1.59133L22.4102 1.58974L20.2889 3.71106ZM18.9913 2.8673L17.9056 5.66395L17.9122 5.66649L18.9913 2.8673ZM16.8346 2.46937L16.6941 5.46608L16.6961 5.46618L16.8346 2.46937ZM16.947 0.0719999L16.8065 3.06871L16.8085 3.0688L16.947 0.0719999ZM19.86 0.63L18.7743 3.42664L18.7806 3.42908L19.86 0.63ZM21.9859 2.014L24.1088 -0.105719L24.1073 -0.107266L21.9859 2.014ZM23.37 4.14L26.1675 3.05646L26.167 3.05523L23.37 4.14ZM23.928 7.053L26.925 6.91954L26.9247 6.9122L23.928 7.053ZM23.928 16.947L20.9313 16.8065L20.9312 16.8085L23.928 16.947ZM23.37 19.86L20.572 18.7777L20.5709 18.7806L23.37 19.86ZM21.9859 21.986L24.1057 24.1089L24.109 24.1056L21.9859 21.986ZM19.86 23.37L20.9427 26.1678L20.9461 26.1665L19.86 23.37ZM16.947 23.928L17.0805 26.925L17.0878 26.9247L16.947 23.928ZM7.05299 23.928L7.19347 20.9313L7.19155 20.9312L7.05299 23.928ZM4.14 23.37L5.22147 20.5717L5.22061 20.5714L4.14 23.37ZM2.01399 21.986L-0.107461 24.1072L-0.105741 24.1089L2.01399 21.986ZM0.63 19.86L-2.16663 20.9458L-2.16657 20.9459L0.63 19.86ZM0.0720001 16.947L-2.92504 17.0805L-2.92469 17.0878L0.0720001 16.947ZM0.0720001 7.053L3.06871 7.19347L3.06881 7.19133L0.0720001 7.053ZM0.63 4.14L3.42664 5.22575L3.42867 5.22048L0.63 4.14ZM2.01399 2.014L-0.107327 -0.107323L-0.107346 -0.107304L2.01399 2.014ZM4.14 0.63L5.22477 3.42701L5.22575 3.42663L4.14 0.63ZM7.05299 0.0719999L6.91953 -2.92504L6.9123 -2.9247L7.05299 0.0719999ZM12 8.4V5.4C8.35398 5.4 5.39999 8.35517 5.39999 12H8.39999H11.4C11.4 11.6683 11.6683 11.4 12 11.4V8.4ZM8.39999 12H5.39999C5.39999 15.6459 8.35517 18.6 12 18.6V15.6V12.6C11.6683 12.6 11.4 12.3316 11.4 12H8.39999ZM12 15.6V18.6C15.6459 18.6 18.6 15.6449 18.6 12H15.6H12.6C12.6 12.3317 12.3317 12.6 12 12.6V15.6ZM15.6 12H18.6C18.6 8.35413 15.6449 5.4 12 5.4V8.4V11.4C12.3317 11.4 12.6 11.6684 12.6 12H15.6ZM12 6V9C13.6566 9 15 10.3423 15 12H18H21C21 7.02669 16.9684 3 12 3V6ZM18 12H15C15 13.6567 13.6577 15 12 15V18V21C16.9733 21 21 16.9685 21 12H18ZM12 18V15C10.3433 15 8.99999 13.6577 8.99999 12H5.99999H2.99999C2.99999 16.9733 7.03153 21 12 21V18ZM5.99999 12H8.99999C8.99999 10.3433 10.3423 9 12 9V6V3C7.02671 3 2.99999 7.03153 2.99999 12H5.99999ZM19.8 5.69898H16.8C16.8 4.8689 17.4715 4.199 18.3 4.199V7.199V10.199C20.7825 10.199 22.8 8.18532 22.8 5.69898H19.8ZM18.3 7.199V4.199C19.1301 4.199 19.8 4.87062 19.8 5.69898H16.8H13.8C13.8 8.18154 15.8136 10.199 18.3 10.199V7.199ZM16.8 5.69898H19.8C19.8 6.53131 19.1271 7.2 18.3 7.2V4.2V1.2C15.8186 1.2 13.8 3.21245 13.8 5.69898H16.8ZM18.3 4.2L18.3038 7.2C17.4706 7.20105 16.8 6.52942 16.8 5.69898H19.8H22.8C22.8 3.21434 20.7813 1.19686 18.2962 1.2L18.3 4.2ZM12 2.4V-0.6C9.02242 -0.6 8.48317 -0.592287 7.03208 -0.52767L7.16554 2.46936L7.299 5.46639C8.6101 5.40801 9.03881 5.4 12 5.4V2.4ZM7.16554 2.46936L7.02486 -0.52734C5.85793 -0.472559 4.88969 -0.304689 3.92207 0.0709686L5.00781 2.8676L6.09355 5.66424C6.29802 5.58486 6.59126 5.49962 7.30622 5.46606L7.16554 2.46936ZM5.00781 2.8676L3.92303 0.0705949C3.0225 0.419855 2.29155 0.887916 1.58972 1.58974L3.71105 3.71106L5.83237 5.83238C5.90905 5.75569 5.94154 5.73527 5.94661 5.73198C5.95228 5.7283 5.9861 5.70591 6.09259 5.66461L5.00781 2.8676ZM3.71105 3.71106L1.58972 1.58974C0.887465 2.292 0.418203 3.0227 0.0686488 3.92807L2.8673 5.0086L5.66595 6.08913C5.70658 5.98391 5.72818 5.95176 5.73094 5.9475C5.7335 5.94355 5.75382 5.91092 5.83237 5.83238L3.71105 3.71106ZM2.8673 5.0086L0.0706754 3.92283C-0.305309 4.89126 -0.473516 5.85877 -0.52745 7.02703L2.46936 7.16538L5.46617 7.30373C5.49899 6.59269 5.58382 6.3007 5.66393 6.09436L2.8673 5.0086ZM2.46936 7.16538L-0.527352 7.02492C-0.593002 8.42552 -0.600002 8.94911 -0.600002 12H2.4H5.4C5.4 8.95741 5.40752 8.55496 5.46607 7.30584L2.46936 7.16538ZM2.4 12H-0.600002C-0.600002 14.9776 -0.592289 15.5168 -0.527685 16.9678L2.46935 16.8343L5.46638 16.7009C5.408 15.3899 5.4 14.9612 5.4 12H2.4ZM2.46935 16.8343L-0.527348 16.9751C-0.472555 18.1412 -0.304612 19.1105 0.070582 20.0769L2.86723 18.9912L5.66388 17.9055C5.58513 17.7027 5.49964 17.4086 5.46604 16.6935L2.46935 16.8343ZM2.86723 18.9912L0.0706695 20.0771C0.419668 20.9759 0.887318 21.7078 1.58832 22.4089L3.70977 20.2877L5.83122 18.1665C5.75648 18.0917 5.7363 18.0598 5.73263 18.0541C5.72841 18.0476 5.70548 18.0126 5.66379 17.9053L2.86723 18.9912ZM3.70977 20.2877L1.58994 22.4105C2.29073 23.1103 3.02117 23.5813 3.92481 23.93L5.00506 21.1313L6.08532 18.3325C5.985 18.2938 5.95395 18.273 5.94901 18.2698C5.94388 18.2665 5.90962 18.2448 5.82961 18.1649L3.70977 20.2877ZM5.00506 21.1313L3.92331 23.9295C4.89311 24.3044 5.85849 24.4734 7.02678 24.5274L7.16536 21.5306L7.30395 18.5338C6.5987 18.5012 6.30338 18.4168 6.08682 18.3331L5.00506 21.1313ZM7.16536 21.5306L7.02503 24.5274C8.42551 24.5929 8.94896 24.6 12 24.6V21.6V18.6C8.95754 18.6 8.55495 18.5924 7.30569 18.5339L7.16536 21.5306ZM12 21.6V24.6C14.9777 24.6 15.5168 24.5922 16.9677 24.5277L16.8343 21.5306L16.701 18.5336C15.3899 18.5919 14.9611 18.6 12 18.6V21.6ZM16.8343 21.5306L16.9749 24.5273C18.1412 24.4726 19.1089 24.3039 20.0737 23.9306L18.9912 21.1327L17.9087 18.3348C17.7011 18.4151 17.4045 18.5006 16.6937 18.5339L16.8343 21.5306ZM18.9912 21.1327L20.0772 23.9293C20.9752 23.5805 21.7074 23.1121 22.4074 22.4131L20.2877 20.2902L18.168 18.1673C18.093 18.2421 18.0602 18.2631 18.0534 18.2675C18.046 18.2723 18.0108 18.2952 17.9052 18.3362L18.9912 21.1327ZM20.2877 20.2902L22.4106 22.4099C23.1108 21.7087 23.5816 20.979 23.9308 20.0731L21.1316 18.994L18.3325 17.9148C18.2935 18.0159 18.2728 18.0466 18.27 18.0509C18.2671 18.0554 18.2456 18.0895 18.1648 18.1705L20.2877 20.2902ZM21.1316 18.994L23.9294 20.0767C24.3043 19.1081 24.4734 18.1413 24.5274 16.9732L21.5306 16.8347L18.5338 16.6961C18.5012 17.4023 18.4164 17.6978 18.3339 17.9112L21.1316 18.994ZM21.5306 16.8347L24.5274 16.975C24.5929 15.5745 24.6 15.051 24.6 12H21.6H18.6C18.6 15.0424 18.5924 15.445 18.5339 16.6944L21.5306 16.8347ZM21.6 12H24.6C24.6 9.02231 24.5922 8.48318 24.5277 7.03231L21.5306 7.16564L18.5336 7.29898C18.5919 8.61012 18.6 9.03894 18.6 12H21.6ZM21.5306 7.16564L24.5273 7.02468C24.4725 5.85921 24.304 4.8898 23.9297 3.92395L21.1324 5.00782L18.335 6.09168C18.4149 6.29778 18.5005 6.59454 18.534 7.30661L21.5306 7.16564ZM21.1324 5.00782L23.9293 3.92279C23.5802 3.023 23.1114 2.29195 22.4118 1.59133L20.2889 3.71106L18.166 5.83079C18.2428 5.90776 18.2641 5.94116 18.2681 5.9474C18.2725 5.95408 18.2948 5.98814 18.3355 6.09285L21.1324 5.00782ZM20.2889 3.71106L22.4102 1.58974C21.7078 0.887363 20.9779 0.41797 20.0705 0.0681204L18.9913 2.8673L17.9122 5.66649C18.0173 5.70703 18.0487 5.7283 18.0522 5.73053C18.0554 5.73264 18.088 5.75282 18.1676 5.83238L20.2889 3.71106ZM18.9913 2.8673L20.077 0.0706622C19.1091 -0.30512 18.1406 -0.473497 16.973 -0.527433L16.8346 2.46937L16.6961 5.46618C17.4067 5.499 17.6997 5.58402 17.9056 5.66395L18.9913 2.8673ZM16.8346 2.46937L16.9751 -0.527336C15.5745 -0.593 15.0508 -0.6 12 -0.6V2.4V5.4C15.0425 5.4 15.445 5.40752 16.6941 5.46608L16.8346 2.46937ZM12 0V3C15.2491 3 15.5991 3.01211 16.8065 3.06871L16.947 0.0719999L17.0875 -2.92471C15.7348 -2.98811 15.2707 -3 12 -3V0ZM16.947 0.0719999L16.8085 3.0688C17.8029 3.11475 18.3489 3.26149 18.7743 3.42663L19.86 0.63L20.9458 -2.16663C19.8411 -2.59549 18.645 -2.85274 17.0855 -2.9248L16.947 0.0719999ZM19.86 0.63L18.7806 3.42908C19.2017 3.59147 19.5093 3.77998 19.8645 4.13526L21.9859 2.014L24.1073 -0.107266C23.1286 -1.08598 22.1002 -1.72146 20.9394 -2.16908L19.86 0.63ZM21.9859 2.014L19.863 4.13371C20.2171 4.4883 20.408 4.79944 20.573 5.22477L23.37 4.14L26.167 3.05523C25.72 1.90256 25.0868 0.873707 24.1088 -0.105719L21.9859 2.014ZM23.37 4.14L20.5725 5.22354C20.7374 5.64923 20.8845 6.19773 20.9313 7.1938L23.928 7.053L26.9247 6.9122C26.8515 5.35427 26.5944 4.15878 26.1675 3.05646L23.37 4.14ZM23.928 7.053L20.931 7.18646C20.9851 8.40125 21 8.75724 21 12H24H27C27 8.72275 26.9849 8.26476 26.925 6.91954L23.928 7.053ZM24 12H21C21 15.2492 20.9879 15.5991 20.9313 16.8065L23.928 16.947L26.9247 17.0875C26.9881 15.7348 27 15.2708 27 12H24ZM23.928 16.947L20.9312 16.8085C20.8853 17.8004 20.7382 18.3482 20.572 18.7777L23.37 19.86L26.168 20.9423C26.5937 19.8418 26.8526 18.6477 26.9248 17.0855L23.928 16.947ZM23.37 19.86L20.5709 18.7806C20.4093 19.1998 20.22 19.5087 19.8629 19.8664L21.9859 21.986L24.109 24.1056C25.0838 23.1292 25.7207 22.1023 26.1691 20.9394L23.37 19.86ZM21.9859 21.986L19.8661 19.8632C19.5126 20.2162 19.2005 20.4078 18.7739 20.5735L19.86 23.37L20.9461 26.1665C22.0954 25.7202 23.1254 25.0878 24.1057 24.1089L21.9859 21.986ZM19.86 23.37L18.7773 20.5722C18.3498 20.7376 17.8018 20.8845 16.8062 20.9313L16.947 23.928L17.0878 26.9247C18.6461 26.8515 19.8402 26.5945 20.9427 26.1678L19.86 23.37ZM16.947 23.928L16.8136 20.931C15.5987 20.9851 15.2427 21 12 21V24V27C15.2772 27 15.7352 26.9849 17.0805 26.925L16.947 23.928ZM12 24V21C8.75078 21 8.40086 20.9879 7.19347 20.9313L7.05299 23.928L6.91252 26.9247C8.26511 26.9881 8.7292 27 12 27V24ZM7.05299 23.928L7.19155 20.9312C6.20004 20.8854 5.65282 20.7384 5.22147 20.5717L4.14 23.37L3.05852 26.1683C4.15916 26.5937 5.35194 26.8526 6.91444 26.9248L7.05299 23.928ZM4.14 23.37L5.22061 20.5714C4.80013 20.409 4.49029 20.2192 4.13373 19.8631L2.01399 21.986L-0.105741 24.1089C0.871692 25.0849 1.89985 25.7209 3.05938 26.1686L4.14 23.37ZM2.01399 21.986L4.13545 19.8649C3.78362 19.513 3.5928 19.2022 3.42656 18.7741L0.63 19.86L-2.16657 20.9459C-1.7208 22.0939 -1.08962 23.1249 -0.107461 24.1072L2.01399 21.986ZM0.63 19.86L3.42663 18.7743C3.26207 18.3504 3.11558 17.8042 3.06869 16.8062L0.0720001 16.947L-2.92469 17.0878C-2.85158 18.6439 -2.59607 19.8396 -2.16663 20.9458L0.63 19.86ZM0.0720001 16.947L3.06903 16.8135C3.01493 15.5987 3 15.2428 3 12H0H-3C-3 15.2773 -2.98493 15.7352 -2.92503 17.0805L0.0720001 16.947ZM0 12H3C3 8.7508 3.01211 8.40088 3.06871 7.19347L0.0720001 7.053L-2.92471 6.91253C-2.98811 8.26513 -3 8.7292 -3 12H0ZM0.0720001 7.053L3.06881 7.19133C3.11474 6.19632 3.26139 5.65137 3.42663 5.22575L0.63 4.14L-2.16663 3.05425C-2.59539 4.15863 -2.85275 5.35368 -2.92481 6.91467L0.0720001 7.053ZM0.63 4.14L3.42867 5.22048C3.59157 4.79854 3.7807 4.48993 4.13533 4.1353L2.01399 2.014L-0.107346 -0.107304C-1.08671 0.872075 -1.72159 1.90147 -2.16867 3.05952L0.63 4.14ZM2.01399 2.014L4.13532 4.13532C4.4877 3.78293 4.7975 3.59272 5.22477 3.42701L4.14 0.63L3.05522 -2.16701C1.9045 -1.72072 0.874282 -1.08893 -0.107327 -0.107323L2.01399 2.014ZM4.14 0.63L5.22575 3.42663C5.64981 3.26199 6.19508 3.11558 7.19368 3.0687L7.05299 0.0719999L6.9123 -2.9247C5.35491 -2.85158 4.16018 -2.59599 3.05424 -2.16663L4.14 0.63ZM7.05299 0.0719999L7.18646 3.06903C8.40123 3.01493 8.75724 3 12 3V0V-3C8.72274 -3 8.26474 -2.98493 6.91953 -2.92503L7.05299 0.0719999Z" fill="#1A1A1A" mask="url(#path-2-inside-1_153_269)"/>
<rect x="1.5" y="1.5" width="21" height="21" rx="6" fill="#1A1A1A"/>
<rect x="1.5" y="1.5" width="21" height="21" rx="6" fill="#1A1A1A"/>
<rect x="1.5" y="1.5" width="21" height="21" rx="6" fill="#1A1A1A"/>
<path d="M17.75 8.375C17.75 8.99632 17.2463 9.5 16.625 9.5C16.0037 9.5 15.5 8.99632 15.5 8.375C15.5 7.75368 16.0037 7.25 16.625 7.25C17.2463 7.25 17.75 7.75368 17.75 8.375Z" fill="#FAFAFA"/>
<path fill-rule="evenodd" clip-rule="evenodd" d="M12.5 16.25C14.5711 16.25 16.25 14.5711 16.25 12.5C16.25 10.4289 14.5711 8.75 12.5 8.75C10.4289 8.75 8.75 10.4289 8.75 12.5C8.75 14.5711 10.4289 16.25 12.5 16.25ZM12.5 14.75C13.7426 14.75 14.75 13.7426 14.75 12.5C14.75 11.2574 13.7426 10.25 12.5 10.25C11.2574 10.25 10.25 11.2574 10.25 12.5C10.25 13.7426 11.2574 14.75 12.5 14.75Z" fill="#FAFAFA"/>
<path fill-rule="evenodd" clip-rule="evenodd" d="M5 12.2C5 9.67976 5 8.41965 5.49047 7.45704C5.9219 6.61031 6.61031 5.9219 7.45704 5.49047C8.41965 5 9.67976 5 12.2 5H12.8C15.3202 5 16.5804 5 17.543 5.49047C18.3897 5.9219 19.0781 6.61031 19.5095 7.45704C20 8.41965 20 9.67976 20 12.2V12.8C20 15.3202 20 16.5804 19.5095 17.543C19.0781 18.3897 18.3897 19.0781 17.543 19.5095C16.5804 20 15.3202 20 12.8 20H12.2C9.67976 20 8.41965 20 7.45704 19.5095C6.61031 19.0781 5.9219 18.3897 5.49047 17.543C5 16.5804 5 15.3202 5 12.8V12.2ZM12.2 6.5H12.8C14.0849 6.5 14.9583 6.50117 15.6334 6.55633C16.2911 6.61006 16.6274 6.70745 16.862 6.82698C17.4265 7.1146 17.8854 7.57354 18.173 8.13803C18.2926 8.37263 18.3899 8.70893 18.4437 9.36656C18.4988 10.0417 18.5 10.9151 18.5 12.2V12.8C18.5 14.0849 18.4988 14.9583 18.4437 15.6334C18.3899 16.2911 18.2926 16.6274 18.173 16.862C17.8854 17.4265 17.4265 17.8854 16.862 18.173C16.6274 18.2926 16.2911 18.3899 15.6334 18.4437C14.9583 18.4988 14.0849 18.5 12.8 18.5H12.2C10.9151 18.5 10.0417 18.4988 9.36656 18.4437C8.70893 18.3899 8.37263 18.2926 8.13803 18.173C7.57354 17.8854 7.1146 17.4265 6.82698 16.862C6.70745 16.6274 6.61006 16.2911 6.55633 15.6334C6.50117 14.9583 6.5 14.0849 6.5 12.8V12.2C6.5 10.9151 6.50117 10.0417 6.55633 9.36656C6.61006 8.70893 6.70745 8.37263 6.82698 8.13803C7.1146 7.57354 7.57354 7.1146 8.13803 6.82698C8.37263 6.70745 8.70893 6.61006 9.36656 6.55633C10.0417 6.50117 10.9151 6.5 12.2 6.5Z" fill="#FAFAFA"/>
</g>
<defs>
<clipPath id="clip0_153_269">
<rect width="24" height="24" rx="12" fill="white"/>
</clipPath>
</defs>
</svg>
