<svg width="40" height="40" viewBox="0 0 40 40" fill="none" xmlns="http://www.w3.org/2000/svg">
<g clip-path="url(#clip0_4_55)">
<mask id="path-1-inside-1_4_55" fill="white">
<path d="M33.2682 14.6683C32.8484 14.5238 32.4135 14.3871 31.9657 14.2578C32.0393 13.9574 32.1068 13.6609 32.1669 13.3694C33.1529 8.58331 32.5082 4.72759 30.3068 3.45812C28.196 2.24087 24.7439 3.51005 21.2574 6.54421C20.9222 6.83598 20.586 7.14488 20.2499 7.46862C20.026 7.25443 19.8024 7.04743 19.5794 6.84945C15.9255 3.60512 12.263 2.23792 10.0638 3.51106C7.95502 4.73184 7.33052 8.35659 8.21805 12.8924C8.30376 13.3305 8.40394 13.7779 8.51723 14.2328C7.99888 14.38 7.49847 14.5368 7.01967 14.7037C2.73584 16.1972 0 18.538 0 20.9659C0 23.4735 2.93693 25.9887 7.39887 27.5138C7.75098 27.6341 8.11635 27.7479 8.49289 27.8559C8.37066 28.3479 8.26436 28.83 8.17512 29.3003C7.32886 33.7574 7.98974 37.2965 10.0929 38.5096C12.2654 39.7623 15.9113 38.4746 19.4615 35.3713C19.7421 35.126 20.0237 34.8659 20.3058 34.5932C20.6714 34.9453 21.0365 35.2786 21.3997 35.5912C24.8385 38.5503 28.2348 39.7453 30.3361 38.5288C32.5063 37.2724 33.2116 33.4706 32.2959 28.845C32.226 28.4918 32.1446 28.1309 32.0532 27.7635C32.3093 27.6878 32.5606 27.6097 32.8057 27.5285C37.4443 25.9916 40.4624 23.507 40.4624 20.9659C40.4624 18.5292 37.6383 16.1727 33.2682 14.6683ZM32.2621 25.8877C32.0408 25.961 31.8138 26.0318 31.5825 26.1004C31.0704 24.4792 30.3793 22.7554 29.5335 20.9743C30.3406 19.2357 31.005 17.5339 31.5028 15.9233C31.9167 16.043 32.3184 16.1694 32.7055 16.3027C36.4498 17.5917 38.7338 19.4975 38.7338 20.9659C38.7338 22.5301 36.2672 24.5606 32.2621 25.8877ZM30.6002 29.1807C31.0052 31.2261 31.063 33.0753 30.7948 34.521C30.5538 35.82 30.0692 36.686 29.4699 37.0329C28.1948 37.771 25.4679 36.8116 22.527 34.2808C22.1898 33.9907 21.8502 33.681 21.5096 33.3531C22.6497 32.1062 23.7892 30.6566 24.9013 29.0467C26.8573 28.8731 28.7053 28.5893 30.3812 28.2019C30.4638 28.5349 30.5371 28.8614 30.6002 29.1807ZM13.7945 36.9053C12.5487 37.3453 11.5564 37.3579 10.9566 37.0121C9.68032 36.2759 9.14973 33.4344 9.87348 29.6227C9.95638 29.1861 10.0551 28.7377 10.1688 28.2794C11.8263 28.6459 13.6608 28.9096 15.6215 29.0686C16.7411 30.6439 17.9135 32.0919 19.0949 33.3598C18.8368 33.609 18.5797 33.8463 18.324 34.0698C16.7541 35.4421 15.181 36.4157 13.7945 36.9053ZM7.9579 25.8781C5.98492 25.2038 4.35556 24.3273 3.23871 23.371C2.23514 22.5115 1.72847 21.6583 1.72847 20.9659C1.72847 19.4926 3.92508 17.6133 7.58864 16.336C8.03317 16.181 8.4985 16.0349 8.98141 15.8977C9.48773 17.5447 10.1519 19.2667 10.9535 21.008C10.1416 22.7751 9.46793 24.5245 8.95664 26.1909C8.61237 26.0919 8.27884 25.9878 7.9579 25.8781ZM9.91439 12.5605C9.15398 8.67428 9.659 5.74268 10.9298 5.00704C12.2835 4.22336 15.2768 5.34072 18.4317 8.14203C18.6334 8.32108 18.8358 8.50848 19.0388 8.70237C17.8632 9.9647 16.7016 11.4018 15.5919 12.9679C13.6889 13.1443 11.8674 13.4276 10.1925 13.807C10.0872 13.3835 9.99398 12.9673 9.91439 12.5605ZM27.368 16.8702C26.9677 16.1787 26.5566 15.5034 26.1376 14.8467C27.4286 15.0099 28.6655 15.2265 29.8271 15.4916C29.4784 16.6093 29.0437 17.7778 28.532 18.9758C28.165 18.279 27.7768 17.5764 27.368 16.8702ZM20.2505 9.9377C21.0478 10.8015 21.8462 11.7658 22.6315 12.8122C21.8402 12.7748 21.039 12.7554 20.2312 12.7554C19.431 12.7554 18.6357 12.7744 17.8492 12.8111C18.6354 11.7745 19.4407 10.8114 20.2505 9.9377ZM13.0873 16.8822C12.6874 17.5757 12.3064 18.2744 11.9451 18.9745C11.4418 17.7807 11.0112 16.6068 10.6594 15.4733C11.8138 15.215 13.0449 15.0038 14.3277 14.8436C13.9028 15.5065 13.4884 16.1868 13.0873 16.8822ZM14.3647 27.2115C13.0393 27.0636 11.7897 26.8633 10.6356 26.612C10.9929 25.4583 11.4331 24.2594 11.9471 23.0399C12.3093 23.7394 12.6918 24.4385 13.0942 25.1335C13.5041 25.8415 13.9288 26.5351 14.3647 27.2115ZM20.2983 32.116C19.479 31.2321 18.6619 30.2543 17.8638 29.2025C18.6385 29.2329 19.4284 29.2485 20.2312 29.2485C21.0559 29.2485 21.8712 29.2299 22.6737 29.1942C21.8857 30.2649 21.0902 31.2442 20.2983 32.116ZM28.5485 22.9777C29.0894 24.2104 29.5453 25.4031 29.9072 26.5371C28.7341 26.8048 27.4674 27.0203 26.1328 27.1805C26.5529 26.5149 26.9675 25.8281 27.3749 25.1216C27.7871 24.4069 28.1785 23.691 28.5485 22.9777ZM25.8777 24.2581C25.2452 25.3547 24.5958 26.4017 23.9366 27.3899C22.7359 27.4757 21.4955 27.52 20.2312 27.52C18.972 27.52 17.7472 27.4808 16.5678 27.4043C15.882 26.4031 15.2185 25.3531 14.59 24.2675C13.9632 23.1849 13.3865 22.0931 12.8637 21.0074C13.3863 19.9192 13.9617 18.8262 14.5849 17.7455C15.2098 16.6619 15.8673 15.6172 16.5467 14.6223C17.7501 14.5314 18.984 14.4839 20.2311 14.4839C21.4838 14.4839 22.7194 14.5317 23.9224 14.6235C24.5915 15.6111 25.2447 16.6526 25.872 17.7364C26.5064 18.8323 27.0892 19.918 27.6163 20.9828C27.0908 22.066 26.5093 23.1627 25.8777 24.2581ZM29.4434 4.95562C30.7984 5.73699 31.3253 8.88826 30.474 13.0205C30.4197 13.2842 30.3585 13.5528 30.2921 13.825C28.6134 13.4376 26.7905 13.1494 24.882 12.9703C23.7702 11.3871 22.6181 9.94771 21.4616 8.70157C21.7725 8.40247 22.083 8.11726 22.3922 7.84811C25.3794 5.24846 28.1714 4.22207 29.4434 4.95562ZM20.2312 17.3528C22.2266 17.3528 23.8443 18.9704 23.8443 20.9659C23.8443 22.9614 22.2266 24.5791 20.2312 24.5791C18.2357 24.5791 16.618 22.9614 16.618 20.9659C16.618 18.9704 18.2357 17.3528 20.2312 17.3528Z"/>
</mask>
<path d="M33.2682 14.6683C32.8484 14.5238 32.4135 14.3871 31.9657 14.2578C32.0393 13.9574 32.1068 13.6609 32.1669 13.3694C33.1529 8.58331 32.5082 4.72759 30.3068 3.45812C28.196 2.24087 24.7439 3.51005 21.2574 6.54421C20.9222 6.83598 20.586 7.14488 20.2499 7.46862C20.026 7.25443 19.8024 7.04743 19.5794 6.84945C15.9255 3.60512 12.263 2.23792 10.0638 3.51106C7.95502 4.73184 7.33052 8.35659 8.21805 12.8924C8.30376 13.3305 8.40394 13.7779 8.51723 14.2328C7.99888 14.38 7.49847 14.5368 7.01967 14.7037C2.73584 16.1972 0 18.538 0 20.9659C0 23.4735 2.93693 25.9887 7.39887 27.5138C7.75098 27.6341 8.11635 27.7479 8.49289 27.8559C8.37066 28.3479 8.26436 28.83 8.17512 29.3003C7.32886 33.7574 7.98974 37.2965 10.0929 38.5096C12.2654 39.7623 15.9113 38.4746 19.4615 35.3713C19.7421 35.126 20.0237 34.8659 20.3058 34.5932C20.6714 34.9453 21.0365 35.2786 21.3997 35.5912C24.8385 38.5503 28.2348 39.7453 30.3361 38.5288C32.5063 37.2724 33.2116 33.4706 32.2959 28.845C32.226 28.4918 32.1446 28.1309 32.0532 27.7635C32.3093 27.6878 32.5606 27.6097 32.8057 27.5285C37.4443 25.9916 40.4624 23.507 40.4624 20.9659C40.4624 18.5292 37.6383 16.1727 33.2682 14.6683ZM32.2621 25.8877C32.0408 25.961 31.8138 26.0318 31.5825 26.1004C31.0704 24.4792 30.3793 22.7554 29.5335 20.9743C30.3406 19.2357 31.005 17.5339 31.5028 15.9233C31.9167 16.043 32.3184 16.1694 32.7055 16.3027C36.4498 17.5917 38.7338 19.4975 38.7338 20.9659C38.7338 22.5301 36.2672 24.5606 32.2621 25.8877ZM30.6002 29.1807C31.0052 31.2261 31.063 33.0753 30.7948 34.521C30.5538 35.82 30.0692 36.686 29.4699 37.0329C28.1948 37.771 25.4679 36.8116 22.527 34.2808C22.1898 33.9907 21.8502 33.681 21.5096 33.3531C22.6497 32.1062 23.7892 30.6566 24.9013 29.0467C26.8573 28.8731 28.7053 28.5893 30.3812 28.2019C30.4638 28.5349 30.5371 28.8614 30.6002 29.1807ZM13.7945 36.9053C12.5487 37.3453 11.5564 37.3579 10.9566 37.0121C9.68032 36.2759 9.14973 33.4344 9.87348 29.6227C9.95638 29.1861 10.0551 28.7377 10.1688 28.2794C11.8263 28.6459 13.6608 28.9096 15.6215 29.0686C16.7411 30.6439 17.9135 32.0919 19.0949 33.3598C18.8368 33.609 18.5797 33.8463 18.324 34.0698C16.7541 35.4421 15.181 36.4157 13.7945 36.9053ZM7.9579 25.8781C5.98492 25.2038 4.35556 24.3273 3.23871 23.371C2.23514 22.5115 1.72847 21.6583 1.72847 20.9659C1.72847 19.4926 3.92508 17.6133 7.58864 16.336C8.03317 16.181 8.4985 16.0349 8.98141 15.8977C9.48773 17.5447 10.1519 19.2667 10.9535 21.008C10.1416 22.7751 9.46793 24.5245 8.95664 26.1909C8.61237 26.0919 8.27884 25.9878 7.9579 25.8781ZM9.91439 12.5605C9.15398 8.67428 9.659 5.74268 10.9298 5.00704C12.2835 4.22336 15.2768 5.34072 18.4317 8.14203C18.6334 8.32108 18.8358 8.50848 19.0388 8.70237C17.8632 9.9647 16.7016 11.4018 15.5919 12.9679C13.6889 13.1443 11.8674 13.4276 10.1925 13.807C10.0872 13.3835 9.99398 12.9673 9.91439 12.5605ZM27.368 16.8702C26.9677 16.1787 26.5566 15.5034 26.1376 14.8467C27.4286 15.0099 28.6655 15.2265 29.8271 15.4916C29.4784 16.6093 29.0437 17.7778 28.532 18.9758C28.165 18.279 27.7768 17.5764 27.368 16.8702ZM20.2505 9.9377C21.0478 10.8015 21.8462 11.7658 22.6315 12.8122C21.8402 12.7748 21.039 12.7554 20.2312 12.7554C19.431 12.7554 18.6357 12.7744 17.8492 12.8111C18.6354 11.7745 19.4407 10.8114 20.2505 9.9377ZM13.0873 16.8822C12.6874 17.5757 12.3064 18.2744 11.9451 18.9745C11.4418 17.7807 11.0112 16.6068 10.6594 15.4733C11.8138 15.215 13.0449 15.0038 14.3277 14.8436C13.9028 15.5065 13.4884 16.1868 13.0873 16.8822ZM14.3647 27.2115C13.0393 27.0636 11.7897 26.8633 10.6356 26.612C10.9929 25.4583 11.4331 24.2594 11.9471 23.0399C12.3093 23.7394 12.6918 24.4385 13.0942 25.1335C13.5041 25.8415 13.9288 26.5351 14.3647 27.2115ZM20.2983 32.116C19.479 31.2321 18.6619 30.2543 17.8638 29.2025C18.6385 29.2329 19.4284 29.2485 20.2312 29.2485C21.0559 29.2485 21.8712 29.2299 22.6737 29.1942C21.8857 30.2649 21.0902 31.2442 20.2983 32.116ZM28.5485 22.9777C29.0894 24.2104 29.5453 25.4031 29.9072 26.5371C28.7341 26.8048 27.4674 27.0203 26.1328 27.1805C26.5529 26.5149 26.9675 25.8281 27.3749 25.1216C27.7871 24.4069 28.1785 23.691 28.5485 22.9777ZM25.8777 24.2581C25.2452 25.3547 24.5958 26.4017 23.9366 27.3899C22.7359 27.4757 21.4955 27.52 20.2312 27.52C18.972 27.52 17.7472 27.4808 16.5678 27.4043C15.882 26.4031 15.2185 25.3531 14.59 24.2675C13.9632 23.1849 13.3865 22.0931 12.8637 21.0074C13.3863 19.9192 13.9617 18.8262 14.5849 17.7455C15.2098 16.6619 15.8673 15.6172 16.5467 14.6223C17.7501 14.5314 18.984 14.4839 20.2311 14.4839C21.4838 14.4839 22.7194 14.5317 23.9224 14.6235C24.5915 15.6111 25.2447 16.6526 25.872 17.7364C26.5064 18.8323 27.0892 19.918 27.6163 20.9828C27.0908 22.066 26.5093 23.1627 25.8777 24.2581ZM29.4434 4.95562C30.7984 5.73699 31.3253 8.88826 30.474 13.0205C30.4197 13.2842 30.3585 13.5528 30.2921 13.825C28.6134 13.4376 26.7905 13.1494 24.882 12.9703C23.7702 11.3871 22.6181 9.94771 21.4616 8.70157C21.7725 8.40247 22.083 8.11726 22.3922 7.84811C25.3794 5.24846 28.1714 4.22207 29.4434 4.95562ZM20.2312 17.3528C22.2266 17.3528 23.8443 18.9704 23.8443 20.9659C23.8443 22.9614 22.2266 24.5791 20.2312 24.5791C18.2357 24.5791 16.618 22.9614 16.618 20.9659C16.618 18.9704 18.2357 17.3528 20.2312 17.3528Z" fill="#AE33FF" stroke="#AE33FF" stroke-width="6" mask="url(#path-1-inside-1_4_55)"/>
</g>
<defs>
<clipPath id="clip0_4_55">
<rect width="40" height="40" fill="white"/>
</clipPath>
</defs>
</svg>
